<svg width="36" height="36" viewBox="0 0 36 36" fill="none" xmlns="http://www.w3.org/2000/svg">
<path fill-rule="evenodd" clip-rule="evenodd" d="M14.6367 14.1749V12.7707C14.1494 12.7017 13.658 12.6659 13.1657 12.6636C7.1468 12.6636 2.25 17.5612 2.25 23.5802C2.25 27.2724 4.09526 30.5407 6.91016 32.5171C5.02535 30.5014 3.97749 27.8445 3.97901 25.0849C3.97901 19.1517 8.73645 14.3134 14.6367 14.1749Z" fill="#00F2EA"/>
<path fill-rule="evenodd" clip-rule="evenodd" d="M14.894 30.07C17.5794 30.07 19.7702 27.9338 19.8699 25.2714L19.879 1.50474H24.2209C24.1282 1.00851 24.0813 0.504814 24.0807 0H18.1508L18.1409 23.7675C18.042 26.429 15.8504 28.5645 13.1658 28.5645C12.3598 28.5648 11.5659 28.3685 10.853 27.9923C11.3133 28.6345 11.9199 29.1579 12.6226 29.5192C13.3253 29.8805 14.1038 30.0693 14.894 30.07ZM32.3317 9.5718V8.2509C30.736 8.2524 29.1746 7.78822 27.8389 6.91521C29.0099 8.26357 30.5867 9.19567 32.3325 9.5718" fill="#00F2EA"/>
<path fill-rule="evenodd" clip-rule="evenodd" d="M27.8383 6.9142C26.5293 5.41643 25.8083 3.49454 25.8092 1.50537H24.2204C24.4261 2.60483 24.8528 3.65108 25.4747 4.5808C26.0966 5.51051 26.9006 6.30434 27.8383 6.9142ZM13.1652 18.5943C11.8436 18.5958 10.5765 19.1215 9.64193 20.0561C8.70743 20.9906 8.18175 22.2576 8.18018 23.5793C8.18108 24.4884 8.43038 25.3801 8.90123 26.1579C9.37208 26.9355 10.0465 27.5698 10.8516 27.9921C10.2386 27.1467 9.90848 26.1291 9.9084 25.0849C9.90968 23.7631 10.4353 22.4958 11.3699 21.5611C12.3044 20.6264 13.5716 20.1006 14.8934 20.0991C15.4071 20.0991 15.8993 20.184 16.3643 20.3299V14.2755C15.8771 14.2065 15.3856 14.1706 14.8934 14.1683C14.8068 14.1683 14.7219 14.1732 14.6362 14.1749V18.8252C14.1605 18.6738 13.6644 18.5959 13.1652 18.5943Z" fill="#FF004F"/>
<path fill-rule="evenodd" clip-rule="evenodd" d="M32.3321 9.57163V14.1807C29.2567 14.1807 26.408 13.1971 24.0812 11.5274V23.5794C24.0812 29.5983 19.1852 34.4951 13.1663 34.4951C10.8403 34.4951 8.68337 33.7613 6.91064 32.5163C7.92984 33.6153 9.16502 34.4921 10.5389 35.0916C11.9127 35.691 13.3955 36.0002 14.8944 35.9998C20.9134 35.9998 25.8102 31.1031 25.8102 25.0849V13.033C28.2139 14.7614 31.1005 15.6897 34.0611 15.6862V9.7547C33.4675 9.7547 32.8903 9.69035 32.3321 9.5708" fill="#FF004F"/>
<path fill-rule="evenodd" clip-rule="evenodd" d="M24.0807 23.5793V11.5274C26.4843 13.256 29.371 14.1843 32.3317 14.1807V9.57161C30.586 9.19511 29.0095 8.26271 27.8389 6.9142C26.9012 6.30434 26.0971 5.51051 25.4752 4.5808C24.8533 3.65108 24.4266 2.60483 24.2209 1.50537H19.879L19.8699 25.272C19.7701 27.9336 17.5794 30.0699 14.8939 30.0699C14.1038 30.0691 13.3252 29.8802 12.6226 29.5189C11.92 29.1576 11.3134 28.6343 10.853 27.9921C10.0477 27.57 9.37311 26.9358 8.90211 26.158C8.43111 25.3803 8.18166 24.4886 8.18076 23.5793C8.18226 22.2576 8.70793 20.9906 9.64251 20.0561C10.577 19.1215 11.8441 18.5958 13.1658 18.5943C13.6786 18.5943 14.1709 18.6784 14.6367 18.8252V14.1749C8.73643 14.3134 3.979 19.1517 3.979 25.0849C3.979 27.9542 5.09375 30.5663 6.91016 32.517C8.74131 33.8061 10.9264 34.497 13.1658 34.4951C19.1848 34.4951 24.0807 29.5983 24.0807 23.5793Z" fill="white"/>
</svg>
