<svg width="36" height="36" viewBox="0 0 36 36" fill="none" xmlns="http://www.w3.org/2000/svg">
<path fill-rule="evenodd" clip-rule="evenodd" d="M17.5929 2.18652C26.2926 2.18652 33.3507 9.23952 33.3507 17.9443C33.3507 26.6491 26.3433 33.8693 17.5929 33.7021C14.3755 33.6413 12.1765 33.4082 9.77988 31.6297C7.95077 30.2668 0.725497 36.7928 4.2976 26.1069C2.77249 23.685 1.86553 20.9033 1.83006 17.9443C1.73379 9.28005 8.88813 2.18652 17.5929 2.18652Z" fill="#25D366"/>
<path fill-rule="evenodd" clip-rule="evenodd" d="M30.493 5.36327C27.1641 2.03945 22.7458 0.205262 18.0388 0.200195C8.33582 0.200195 0.436672 8.09935 0.431605 17.8023C0.431605 20.9032 1.24229 23.9281 2.7826 26.5983L0.284668 35.7185L9.61773 33.2713C12.1978 34.6782 15.0898 35.4152 18.0286 35.4145H18.0388C27.7417 35.4145 35.6358 27.5204 35.6409 17.8124C35.6459 13.1104 33.8168 8.69217 30.493 5.36327ZM12.1359 26.3247C12.2575 26.4007 12.5109 26.4007 13.0986 26.4007C15.5763 26.3956 17.7145 26.3905 19.2345 26.3905C26.3382 26.3905 26.1507 18.9119 22.832 17.9796C23.3184 17.1183 25.5326 15.4969 24.1645 12.1528C22.8066 8.84417 16.9798 9.59406 12.9922 9.59406C11.5178 9.59406 11.7357 10.6885 11.7458 12.3808C11.7559 15.0662 11.7458 22.332 11.7458 25.4734C11.7458 26.1068 11.9383 26.2081 12.1359 26.3247ZM15.2064 23.5835H18.8191C20.3543 23.5785 21.7223 22.864 21.6869 21.3339C21.6615 19.8949 20.7039 19.4186 19.3713 19.2869C18.1046 19.3021 16.6555 19.3021 15.2064 19.3021V23.5835ZM15.2064 16.4089C17.8817 16.3734 18.9103 16.5153 20.3695 16.1505C21.3727 15.583 21.8085 13.4702 20.3746 12.7557C19.3764 12.2592 16.4326 12.4264 15.2064 12.4771V16.4089ZM18.0388 32.4403H18.0286C15.404 32.4403 12.8301 31.736 10.5855 30.4034L10.0484 30.0842L4.51039 31.5384L5.98989 26.1423L5.64028 25.5849C4.17618 23.2534 3.40153 20.5553 3.40582 17.8023C3.40582 9.73593 9.97241 3.17441 18.0438 3.17441C21.9503 3.17441 25.6238 4.69952 28.3852 7.466C31.1517 10.2274 32.6717 13.9059 32.6717 17.8124C32.6666 25.8788 26.1001 32.4403 18.0388 32.4403Z" fill="#FEFEFE"/>
<path fill-rule="evenodd" clip-rule="evenodd" d="M0.231418 17.8021C0.236543 7.98876 8.22522 0 18.0387 0H18.0388L18.0389 1.11671e-07C22.799 0.005124 27.268 1.8604 30.6343 5.22159L30.4935 5.36263L30.6346 5.2218C33.9958 8.58819 35.8461 13.0574 35.8409 17.8126C35.8358 27.6309 27.8522 35.6146 18.0387 35.6146H18.0286C15.0829 35.6152 12.1836 34.8832 9.59186 33.4849L0 36L2.56754 26.6256C1.03669 23.9428 0.231418 20.9101 0.231418 17.8022L0.231418 17.8021ZM30.3513 5.50463C27.0599 2.21832 22.6925 0.405315 18.0386 0.400278C8.44627 0.400339 0.636705 8.20987 0.631696 17.8023C0.631714 20.8682 1.4332 23.8585 2.95592 26.4982L2.99764 26.5705L0.569239 35.4369L9.64376 33.0575L9.7135 33.0955C12.2642 34.4864 15.1232 35.215 18.0286 35.2143H18.0387C27.6311 35.2143 35.4357 27.4099 35.4407 17.8123V17.8121C35.4457 13.1634 33.6377 8.79603 30.3513 5.50463ZM18.0438 3.37449C10.0828 3.37449 3.60591 9.84654 3.60591 17.8022V17.8024V17.8025C3.60168 20.5178 4.3657 23.1789 5.80973 25.4784L5.80978 25.4785L6.20611 26.1103L4.7951 31.2567L10.0786 29.8693L10.6876 30.2313C10.6876 30.2313 10.6877 30.2313 10.6877 30.2313C12.9012 31.5454 15.4398 32.2401 18.0286 32.2401H18.0387C25.9895 32.2401 32.4665 25.7681 32.4715 17.8122C32.4715 13.9587 30.9725 10.3313 28.2437 7.60759L28.2436 7.60746L28.2435 7.60733C25.5196 4.87842 21.8971 3.37449 18.0438 3.37449ZM3.20563 17.8021C3.20572 9.62511 9.86201 2.97422 18.0438 2.97422C22.0034 2.97422 25.7278 4.52047 28.5267 7.32442C31.3308 10.1235 32.8718 13.853 32.8718 17.8124V17.8125C32.8667 25.9893 26.2105 32.6404 18.0387 32.6404H18.0286C15.3682 32.6404 12.759 31.9265 10.4833 30.5755L10.4832 30.5754L10.0181 30.299L4.22558 31.82L5.77358 26.1741L5.47075 25.6913C3.98658 23.3279 3.20131 20.5928 3.20563 17.8021ZM19.5856 9.43362C21.718 9.66053 23.6245 10.3098 24.3496 12.0768L24.3497 12.0769L24.3497 12.077C25.0559 13.8033 24.8409 15.1034 24.3743 16.0832C24.1434 16.5682 23.8534 16.9696 23.5953 17.2993C23.5308 17.3818 23.468 17.4601 23.4088 17.5339L23.3983 17.547C23.3427 17.6161 23.2908 17.6809 23.2425 17.7425C23.2063 17.7887 23.173 17.8322 23.1427 17.8731C23.9147 18.1765 24.4982 18.8176 24.8515 19.6052C25.2429 20.4777 25.359 21.5435 25.1373 22.5766C24.9151 23.6118 24.3526 24.6188 23.3822 25.366C22.4116 26.1133 21.0462 26.5906 19.2345 26.5906C17.955 26.5906 16.2375 26.5942 14.2479 26.5984C13.8742 26.5991 13.4908 26.5999 13.099 26.6007H13.0902C12.8035 26.6007 12.5882 26.6007 12.4299 26.5909C12.2788 26.5814 12.1397 26.562 12.0324 26.4959C12.0277 26.4932 12.023 26.4904 12.0181 26.4876C11.9248 26.4329 11.7928 26.3556 11.696 26.1972C11.5954 26.0328 11.5456 25.8062 11.5456 25.4734C11.5456 24.5349 11.5465 23.2286 11.5475 21.7865C11.5498 18.4004 11.5527 14.2651 11.5456 12.3819C11.5456 12.3818 11.5456 12.3816 11.5456 12.3815L11.7457 12.3807L11.5456 12.3819C11.5456 12.3819 11.5456 12.3819 11.5456 12.3819C11.5445 12.1934 11.5405 12.0046 11.5367 11.8229C11.5323 11.6121 11.5281 11.4108 11.5287 11.2307C11.5299 10.8873 11.5476 10.5703 11.6188 10.3015C11.6913 10.0279 11.8231 9.79063 12.0602 9.62679C12.2931 9.46588 12.6017 9.39386 12.9922 9.39386C13.5834 9.39386 14.221 9.37695 14.8816 9.35943C16.4225 9.31857 18.089 9.27437 19.5856 9.43362ZM12.1359 26.3246L12.242 26.1549C12.2558 26.1636 12.3032 26.1819 12.4549 26.1914C12.599 26.2004 12.8015 26.2005 13.0982 26.2005C13.4898 26.1997 13.8729 26.1989 14.2465 26.1981C16.2363 26.1939 17.9545 26.1903 19.2345 26.1903C20.9746 26.1903 22.2496 25.7328 23.138 25.0488C24.0267 24.3646 24.5418 23.4436 24.7459 22.4926C24.9505 21.5396 24.8414 20.5609 24.4863 19.769C24.1311 18.9771 23.5372 18.3856 22.7778 18.1722L22.5322 18.1033L22.6576 17.8812C22.7264 17.7594 22.8223 17.6298 22.9274 17.4956C22.9772 17.4321 23.0306 17.3656 23.0856 17.297L23.0967 17.2832C23.1559 17.2095 23.2173 17.1329 23.2801 17.0527C23.5313 16.7317 23.8005 16.3572 24.0129 15.9111C24.433 15.029 24.6411 13.8464 23.9793 12.2287C23.3466 10.687 21.6607 10.057 19.5433 9.83165C18.074 9.67531 16.4543 9.71838 14.9252 9.75905C14.2568 9.77683 13.6058 9.79414 12.9922 9.79414C12.6454 9.79414 12.4284 9.85893 12.2877 9.9561C12.1513 10.0504 12.0618 10.1925 12.0057 10.404C11.9484 10.6204 11.9302 10.8942 11.929 11.2321C11.9284 11.4153 11.9324 11.6033 11.9367 11.8049C11.9406 11.9837 11.9446 12.1732 11.9459 12.3795L11.9459 12.3798L11.9459 12.38C11.953 14.2639 11.9501 18.4016 11.9478 21.7884C11.9468 23.2301 11.9459 24.5356 11.9459 25.4734C11.9459 25.774 11.9924 25.9147 12.0374 25.9884C12.0805 26.0588 12.1337 26.091 12.2376 26.1522L12.1359 26.3246ZM19.3427 12.2969C19.7832 12.3509 20.1824 12.4366 20.4637 12.5765L20.4638 12.5766C21.2738 12.9801 21.545 13.779 21.4854 14.5241C21.4266 15.2585 21.0432 15.9993 20.468 16.3247L20.4443 16.338L20.418 16.3446C19.3235 16.6182 18.4541 16.6135 17.0194 16.6057C16.5018 16.6029 15.9108 16.5997 15.209 16.609L15.0062 16.6117V12.285L15.1981 12.277C15.2798 12.2737 15.3695 12.2698 15.4659 12.2656C16.0889 12.2384 16.9945 12.1989 17.8787 12.211C18.3893 12.218 18.8971 12.2423 19.3427 12.2969ZM15.4065 12.6688V16.2063C16.0485 16.1996 16.5903 16.2025 17.064 16.2051C18.4603 16.2125 19.2644 16.2168 20.2935 15.9631C20.7107 15.7129 21.0359 15.1234 21.0864 14.4922C21.137 13.8604 20.9091 13.2457 20.2853 12.9348C20.0674 12.8265 19.7244 12.7469 19.294 12.6942C18.8685 12.6421 18.3765 12.6182 17.8732 12.6113C17.0016 12.5993 16.1086 12.6382 15.4848 12.6654C15.4582 12.6666 15.4321 12.6677 15.4065 12.6688ZM19.38 19.0865L19.391 19.0876C20.07 19.1548 20.6878 19.3118 21.1415 19.6616C21.6068 20.0203 21.8733 20.5608 21.8869 21.3298C21.9061 22.1652 21.5378 22.7879 20.9567 23.1945C20.3839 23.5953 19.6142 23.781 18.8197 23.7836L18.8193 23.7836H15.0062V19.1019H15.2064C16.6558 19.1019 18.1036 19.1019 19.3689 19.0867L19.38 19.0865ZM15.4065 19.5021V23.3833H18.8183C18.8185 23.3833 18.8187 23.3833 18.8189 23.3833C19.5594 23.3808 20.2411 23.2067 20.7272 22.8666C21.2049 22.5323 21.5028 22.0329 21.4867 21.3384L21.4867 21.3379L21.4867 21.3373C21.4749 20.6676 21.2499 20.2506 20.8971 19.9786C20.5345 19.6991 20.011 19.5522 19.3625 19.4871C18.1555 19.5015 16.7841 19.5021 15.4065 19.5021Z" fill="#25D366"/>
<path fill-rule="evenodd" clip-rule="evenodd" d="M12.0651 26.3094C12.1867 26.3854 12.4451 26.3854 13.0278 26.3854C15.5055 26.3804 17.6437 26.3753 19.1637 26.3753C26.2674 26.3753 26.085 18.8967 22.7612 17.9644C23.2476 17.103 25.4618 15.4816 24.0937 12.1376C22.7358 8.82893 16.909 9.57881 12.9214 9.57881C11.447 9.57881 11.6699 10.6732 11.675 12.3656C11.6851 15.051 11.68 22.3168 11.675 25.4582C11.675 26.0915 11.8675 26.1929 12.0651 26.3094ZM15.1407 23.5683H18.7482C20.2835 23.5632 21.6515 22.8488 21.6161 21.3186C21.5907 19.8796 20.6331 19.4034 19.3005 19.2716C18.0389 19.2868 16.5898 19.2868 15.1407 19.2868V23.5683ZM15.1407 16.3937C17.8109 16.3582 18.8394 16.5001 20.2987 16.1353C21.3019 15.5678 21.7377 13.4549 20.3038 12.7405C19.3107 12.244 16.3618 12.4112 15.1407 12.4618V16.3937Z" fill="#FEFEFE"/>
</svg>
